PathFileType	4	(X/Y/Z)	Walk6.trc
DataRate	CameraRate	NumFrames	NumMarkers	Units	OrigDataRate	OrigDataStartFrame	OrigNumFrames
200.000000	200.000000	4	59	mm	200.000000	471	600
Frame#	Times		LFHD		RFHD		CLAV		STRN		LASI		RASI		RACR1		RUA1		RElbow		RFA1		RWRR		RWRU		RCAR		LACR1		LUA1		LElbow		LFA1		LWRR		RTH2		RTB1		RTB2		LTH1		LTH3		LTH2		LTH4		LMFC		LTB1		LTB2		LTB4		LMT1		LLFC		LCAR		LTB3		LWRU		RTB4		RTB3		RTH3		RMFC		RMMAL		RTH4		RLFC		RMT1		RToe		RTH1		LBHD		RElbowM		RCAL		LMT5		LToe		RBack		RPSI		C7		T10		LPSI		LMMAL		LLMAL		LCAL		LElbowM		RBHD
			X1	Y1	Z1	X2	Y2	Z2	X3	Y3	Z3	X4	Y4	Z4	X5	Y5	Z5	X6	Y6	Z6	X7	Y7	Z7	X8	Y8	Z8	X9	Y9	Z9	X10	Y10	Z10	X11	Y11	Z11	X12	Y12	Z12	X13	Y13	Z13	X14	Y14	Z14	X15	Y15	Z15	X16	Y16	Z16	X17	Y17	Z17	X18	Y18	Z18	X19	Y19	Z19	X20	Y20	Z20	X21	Y21	Z21	X22	Y22	Z22	X23	Y23	Z23	X24	Y24	Z24	X25	Y25	Z25	X26	Y26	Z26	X27	Y27	Z27	X28	Y28	Z28	X29	Y29	Z29	X30	Y30	Z30	X31	Y31	Z31	X32	Y32	Z32	X33	Y33	Z33	X34	Y34	Z34	X35	Y35	Z35	X36	Y36	Z36	X37	Y37	Z37	X38	Y38	Z38	X39	Y39	Z39	X40	Y40	Z40	X41	Y41	Z41	X42	Y42	Z42	X43	Y43	Z43	X44	Y44	Z44	X45	Y45	Z45	X46	Y46	Z46	X47	Y47	Z47	X48	Y48	Z48	X49	Y49	Z49	X50	Y50	Z50	X51	Y51	Z51	X52	Y52	Z52	X53	Y53	Z53	X54	Y54	Z54	X55	Y55	Z55	X56	Y56	Z56	X57	Y57	Z57	X58	Y58	Z58	X59	Y59	Z59

471	2.355	824.09	1649.2	6.6304	825.36	1655.7	105.57	831.84	1393.7	72.668	899.33	1236.2	69.445	792.55	976.81	-108.47	784.22	982.08	258.5	710.74	1470.9	243.69	715.97	1302	362.74	764.36	1163.5	418.63	846.8	1035.5	422.46	908.15	938.44	344.84	903	935.96	427.08	962.57	871.13	388.63	715.45	1466.1	-107.74	644.46	1309.7	-198.58	590.13	1155.2	-249.68	579.74	1015.2	-265.67	605.53	882.14	-212.24	707.67	679.67	244.74	632.51	354.96	145.12	579.47	275.84	190.72	789.5	752.95	-139.69	860.99	598.44	-114.57	875.4	702.59	-109.76	824.66	676.39	-129.48	905.28	518.87	44.659	987.72	438.49	-65.669	985.82	340.19	-101.2	1020.2	361.18	-53.336	1196.1	133.14	-48.399	872.81	518	-110.5	585.94	792.25	-241.26	1046.4	278.64	-41.758	553.25	876.58	-266.25	598.3	275.75	132.35	565.67	197.1	119.53	642.2	597.8	241.47	601.25	495.96	70.767	485.74	83.554	51.936	650.47	681.64	257.83	605.11	483.71	225.78	604.93	26.407	92.051	652.22	27.913	129.22	656.96	766.65	275.12	675.92	1566.9	1.0677	728.34	1078.9	323.01	384.92	56.555	85.951	1145.2	83.344	-108.92	1226.4	157.09	-93.868	574.56	1345.3	185.22	529.44	1026.6	92.115	637.37	1471.9	74.085	577.93	1155.9	58.351	545.94	1020	10.73	1066.7	119.84	41.915	1033.6	94.925	-36.512	1015.2	46.442	26.991	522.76	1113	-152.35	692.74	1581.9	149.17
472	2.36	830.85	1647.6	5.4797	832.14	1654.3	104.41	838.66	1392.2	72.061	906.13	1234.6	69.205	799.74	975	-108.47	790.04	980.84	258.92	717.43	1469.8	242.78	723.05	1301.1	362.08	771.99	1162.8	418.17	855.07	1035.4	421.78	916.72	938.71	343.98	911.88	936.21	426.22	971.7	871.75	387.58	722.53	1464.6	-108.51	650.96	1308.4	-199.15	595.92	1154.1	-249.94	585	1014.1	-265.78	610.3	880.94	-212.19	711.91	678.47	244.81	634.67	354.13	145.13	580.95	275.41	190.63	796.62	751.4	-139.37	868.34	597.09	-113.8	882.6	701.29	-109.29	831.91	674.95	-128.91	912.97	518.02	45.455	996.22	438.31	-65.191	995.19	339.84	-100.36	1029.6	361.38	-52.804	1208.4	135.55	-47.756	880.36	516.57	-109.65	590.23	791.04	-241.02	1057	279.17	-41.078	557.98	875.54	-266.13	599.94	275.14	132.32	566.78	196.71	119.48	645.87	597.05	241.44	604.67	495.42	70.604	486.13	83.719	51.806	654.72	680.84	257.8	608.01	483.18	225.64	604.99	26.423	92.115	652.38	27.826	129.49	661.76	765.81	275.07	682.7	1565.3	0.02186	736.01	1078	322.74	385.11	57.17	85.702	1158	84.676	-107.93	1238.4	159.71	-93.385	581.28	1344	184.29	536.08	1025.3	91.093	644.23	1470.6	73.173	584.64	1154.4	57.501	552.85	1018.6	9.826	1079.6	120.79	43.094	1046.4	95.211	-35.039	1028.8	46.604	28.736	528.75	1112.2	-152.39	699.53	1580.6	148.14
473	2.365	837.63	1646.1	4.2914	838.94	1652.9	103.21	845.52	1390.7	71.417	912.96	1233.1	68.935	806.98	973.2	-108.45	795.93	979.62	259.28	724.16	1468.6	241.83	730.16	1300.3	361.38	779.6	1162.2	417.68	863.3	1035.3	421.08	925.23	938.97	343.1	920.69	936.43	425.35	980.75	872.36	386.51	729.63	1463.1	-109.32	657.52	1307.1	-199.75	601.8	1152.9	-250.23	590.36	1012.9	-265.91	615.17	879.69	-212.16	716.18	677.26	244.87	636.85	353.31	145.14	582.44	275.01	190.56	803.86	749.92	-139.07	875.85	595.85	-113.07	889.94	700.09	-108.84	839.31	673.6	-128.37	920.87	517.27	46.187	1004.7	438.01	-64.697	1004.4	339.37	-99.492	1038.9	361.4	-52.228	1220	137.44	-46.995	888.07	515.23	-108.84	594.65	789.78	-240.79	1067.1	279.48	-40.335	562.83	874.44	-266.04	601.59	274.56	132.3	567.9	196.35	119.44	649.57	596.31	241.4	608.12	494.89	70.434	486.52	83.917	51.685	659	680.04	257.77	610.92	482.66	225.49	605.04	26.441	92.179	652.53	27.748	129.75	666.6	764.95	275.01	689.5	1563.7	-1.0595	743.66	1077.2	322.44	385.3	57.83	85.466	1170	85.649	-106.85	1249.6	161.75	-92.778	588.03	1342.8	183.33	542.77	1024.1	90.078	651.11	1469.2	72.221	591.4	1152.9	56.663	559.8	1017.1	8.9265	1091.7	121.5	44.34	1058.3	95.338	-33.526	1041.6	46.657	30.501	534.81	1111.3	-152.47	706.35	1579.2	147.07
474	2.37	844.43	1644.5	3.0655	845.77	1651.5	101.97	852.41	1389.2	70.732	919.84	1231.6	68.633	814.28	971.41	-108.42	801.9	978.41	259.59	730.92	1467.5	240.84	737.3	1299.4	360.64	787.18	1161.6	417.16	871.46	1035.2	420.35	933.67	939.21	342.21	929.41	936.64	424.46	989.71	872.94	385.45	736.73	1461.5	-110.17	664.12	1305.7	-200.39	607.75	1151.7	-250.56	595.82	1011.7	-266.08	620.15	878.39	-212.13	720.49	676.06	244.94	639.05	352.5	145.15	583.94	274.64	190.49	811.23	748.53	-138.79	883.55	594.71	-112.39	897.42	699	-108.4	846.86	672.35	-127.86	928.98	516.62	46.856	1013.2	437.57	-64.171	1013.3	338.8	-98.601	1048	361.24	-51.592	1230.8	138.8	-46.092	895.95	514	-108.1	599.22	788.48	-240.59	1076.9	279.54	-39.516	567.81	873.27	-265.96	603.26	273.99	132.29	569.03	196.01	119.41	653.31	595.57	241.36	611.6	494.36	70.258	486.92	84.151	51.574	663.31	679.24	257.74	613.86	482.16	225.34	605.09	26.46	92.245	652.66	27.678	130.01	671.48	764.09	274.94	696.33	1562.1	-2.1767	751.29	1076.3	322.11	385.5	58.542	85.244	1181.1	86.239	-105.67	1260.2	163.19	-92.018	594.82	1341.5	182.35	549.52	1022.8	89.077	658	1467.8	71.23	598.21	1151.4	55.84	566.8	1015.7	8.0385	1102.9	121.93	45.658	1069.4	95.281	-31.98	1053.3	46.569	32.271	540.95	1110.4	-152.59	713.2	1577.8	145.97
